# xmcd
#
# Track frame offsets: 
#        150
#        25920
#        45105
#        51690
#        65804
#        77073
#        97139
#        133770
#        153494
#        162352
#
# Disc length: 2311 seconds
#
# Revision: 0
# Processed by: cddbd v1.5.2PL0 Copyright (c) Steve Scherf et al.
# Submitted via: ExactAudioCopy v0.99pb3
#
DISCID=8909050a
DTITLE=ii - Landlakes
DYEAR=2008
DGENRE=Feral Media
TTITLE0=We Ate Everyone
TTITLE1=_____ Services
TTITLE2=Moementks
TTITLE3=Oho
TTITLE4=Good Times, Bad Luck
TTITLE5=Tropes
TTITLE6=Memory Lust
TTITLE7=Conversing With Loverboy
TTITLE8=Reset
TTITLE9=Clamshell
EXTD=
EXTT0=
EXTT1=
EXTT2=
EXTT3=
EXTT4=
EXTT5=
EXTT6=
EXTT7=
EXTT8=
EXTT9=
PLAYORDER=
